<svg xmlns="http://www.w3.org/2000/svg" width="1998" height="1095" style="cursor: move;"><g transform="translate(-1084.2492553418679,-556.5617348035853) scale(2.0000000000000018)"><path class="link" marker-end="" d="M911,371, 1006,479" style="stroke-width: 0.89; stroke-opacity: 1; stroke: rgb(80, 80, 80);"></path><path class="link" marker-end="" d="M911,371, 1006,533" style="stroke-width: 0.89; stroke-opacity: 1; stroke: rgb(80, 80, 80);"></path><path class="link" marker-end="" d="M911,371, 1006,587" style="stroke-width: 0.89; stroke-opacity: 1; stroke: rgb(80, 80, 80);"></path><path class="link" marker-end="" d="M911,425, 1006,479" style="stroke-width: 0.89; stroke-opacity: 1; stroke: rgb(80, 80, 80);"></path><path class="link" marker-end="" d="M911,425, 1006,533" style="stroke-width: 0.89; stroke-opacity: 1; stroke: rgb(80, 80, 80);"></path><path class="link" marker-end="" d="M911,425, 1006,587" style="stroke-width: 0.89; stroke-opacity: 1; stroke: rgb(80, 80, 80);"></path><path class="link" marker-end="" d="M911,479, 1006,479" style="stroke-width: 0.89; stroke-opacity: 1; stroke: rgb(80, 80, 80);"></path><path class="link" marker-end="" d="M911,479, 1006,533" style="stroke-width: 0.89; stroke-opacity: 1; stroke: rgb(80, 80, 80);"></path><path class="link" marker-end="" d="M911,479, 1006,587" style="stroke-width: 0.89; stroke-opacity: 1; stroke: rgb(80, 80, 80);"></path><path class="link" marker-end="" d="M911,533, 1006,479" style="stroke-width: 0.89; stroke-opacity: 1; stroke: rgb(80, 80, 80);"></path><path class="link" marker-end="" d="M911,533, 1006,533" style="stroke-width: 0.89; stroke-opacity: 1; stroke: rgb(80, 80, 80);"></path><path class="link" marker-end="" d="M911,533, 1006,587" style="stroke-width: 0.89; stroke-opacity: 1; stroke: rgb(80, 80, 80);"></path><path class="link" marker-end="" d="M911,587, 1006,479" style="stroke-width: 0.89; stroke-opacity: 1; stroke: rgb(80, 80, 80);"></path><path class="link" marker-end="" d="M911,587, 1006,533" style="stroke-width: 0.89; stroke-opacity: 1; stroke: rgb(80, 80, 80);"></path><path class="link" marker-end="" d="M911,587, 1006,587" style="stroke-width: 0.89; stroke-opacity: 1; stroke: rgb(80, 80, 80);"></path><path class="link" marker-end="" d="M911,641, 1006,479" style="stroke-width: 0.89; stroke-opacity: 1; stroke: rgb(80, 80, 80);"></path><path class="link" marker-end="" d="M911,641, 1006,533" style="stroke-width: 0.89; stroke-opacity: 1; stroke: rgb(80, 80, 80);"></path><path class="link" marker-end="" d="M911,641, 1006,587" style="stroke-width: 0.89; stroke-opacity: 1; stroke: rgb(80, 80, 80);"></path><path class="link" marker-end="" d="M1101,450.5, 1196,533" style="stroke-width: 0.89; stroke-opacity: 1; stroke: rgb(80, 80, 80);"></path><path class="link" marker-end="" d="M1006,425, 1101,505.5" style="stroke-width: 0.89; stroke-opacity: 1; stroke: rgb(80, 80, 80);"></path><path class="link" marker-end="" d="M1006,425, 1101,560.5" style="stroke-width: 0.89; stroke-opacity: 1; stroke: rgb(80, 80, 80);"></path><path class="link" marker-end="" d="M1006,479, 1101,505.5" style="stroke-width: 0.89; stroke-opacity: 1; stroke: rgb(80, 80, 80);"></path><path class="link" marker-end="" d="M1006,479, 1101,560.5" style="stroke-width: 0.89; stroke-opacity: 1; stroke: rgb(80, 80, 80);"></path><path class="link" marker-end="" d="M1006,533, 1101,505.5" style="stroke-width: 0.89; stroke-opacity: 1; stroke: rgb(80, 80, 80);"></path><path class="link" marker-end="" d="M1006,533, 1101,560.5" style="stroke-width: 0.89; stroke-opacity: 1; stroke: rgb(80, 80, 80);"></path><path class="link" marker-end="" d="M1006,587, 1101,505.5" style="stroke-width: 0.89; stroke-opacity: 1; stroke: rgb(80, 80, 80);"></path><path class="link" marker-end="" d="M1006,587, 1101,560.5" style="stroke-width: 0.89; stroke-opacity: 1; stroke: rgb(80, 80, 80);"></path><path class="link" marker-end="" d="M1101,505.5, 1196,533" style="stroke-width: 0.89; stroke-opacity: 1; stroke: rgb(80, 80, 80);"></path><path class="link" marker-end="" d="M1101,560.5, 1196,533" style="stroke-width: 0.89; stroke-opacity: 1; stroke: rgb(80, 80, 80);"></path><path class="link" marker-end="" d="M911,371, 1006,641" style="stroke-width: 0.89; stroke-opacity: 1; stroke: rgb(80, 80, 80);"></path><path class="link" marker-end="" d="M911,425, 1006,641" style="stroke-width: 0.89; stroke-opacity: 1; stroke: rgb(80, 80, 80);"></path><path class="link" marker-end="" d="M911,479, 1006,641" style="stroke-width: 0.89; stroke-opacity: 1; stroke: rgb(80, 80, 80);"></path><path class="link" marker-end="" d="M911,533, 1006,641" style="stroke-width: 0.89; stroke-opacity: 1; stroke: rgb(80, 80, 80);"></path><path class="link" marker-end="" d="M911,587, 1006,641" style="stroke-width: 0.89; stroke-opacity: 1; stroke: rgb(80, 80, 80);"></path><path class="link" marker-end="" d="M911,641, 1006,641" style="stroke-width: 0.89; stroke-opacity: 1; stroke: rgb(80, 80, 80);"></path><path class="link" marker-end="" d="M1006,641, 1101,505.5" style="stroke-width: 0.89; stroke-opacity: 1; stroke: rgb(80, 80, 80);"></path><path class="link" marker-end="" d="M1006,641, 1101,560.5" style="stroke-width: 0.89; stroke-opacity: 1; stroke: rgb(80, 80, 80);"></path><path class="link" marker-end="" d="M911,695, 1006,479" style="stroke-width: 0.89; stroke-opacity: 1; stroke: rgb(80, 80, 80);"></path><path class="link" marker-end="" d="M911,695, 1006,533" style="stroke-width: 0.89; stroke-opacity: 1; stroke: rgb(80, 80, 80);"></path><path class="link" marker-end="" d="M911,695, 1006,587" style="stroke-width: 0.89; stroke-opacity: 1; stroke: rgb(80, 80, 80);"></path><path class="link" marker-end="" d="M911,695, 1006,641" style="stroke-width: 0.89; stroke-opacity: 1; stroke: rgb(80, 80, 80);"></path><path class="link" marker-end="" d="M1006,425, 1101,615.5" style="stroke-width: 0.89; stroke-opacity: 1; stroke: rgb(80, 80, 80);"></path><path class="link" marker-end="" d="M1006,479, 1101,615.5" style="stroke-width: 0.89; stroke-opacity: 1; stroke: rgb(80, 80, 80);"></path><path class="link" marker-end="" d="M1006,533, 1101,615.5" style="stroke-width: 0.89; stroke-opacity: 1; stroke: rgb(80, 80, 80);"></path><path class="link" marker-end="" d="M1006,587, 1101,615.5" style="stroke-width: 0.89; stroke-opacity: 1; stroke: rgb(80, 80, 80);"></path><path class="link" marker-end="" d="M1006,641, 1101,615.5" style="stroke-width: 0.89; stroke-opacity: 1; stroke: rgb(80, 80, 80);"></path><path class="link" marker-end="" d="M1101,615.5, 1196,533" style="stroke-width: 0.89; stroke-opacity: 1; stroke: rgb(80, 80, 80);"></path><circle r="16.5" class="node" id="0_0" cx="911" cy="371" style="fill: rgb(45, 69, 236); stroke: rgb(51, 51, 51);"></circle><circle r="16.5" class="node" id="0_1" cx="911" cy="425" style="fill: rgb(45, 69, 236); stroke: rgb(51, 51, 51);"></circle><circle r="16.5" class="node" id="0_2" cx="911" cy="479" style="fill: rgb(45, 69, 236); stroke: rgb(51, 51, 51);"></circle><circle r="16.5" class="node" id="0_3" cx="911" cy="533" style="fill: rgb(45, 69, 236); stroke: rgb(51, 51, 51);"></circle><circle r="16.5" class="node" id="0_4" cx="911" cy="587" style="fill: rgb(45, 69, 236); stroke: rgb(51, 51, 51);"></circle><circle r="16.5" class="node" id="0_5" cx="911" cy="641" style="fill: rgb(45, 69, 236); stroke: rgb(51, 51, 51);"></circle><circle r="16.5" class="node" id="0_6" cx="911" cy="695" style="fill: rgb(45, 69, 236); stroke: rgb(51, 51, 51);"></circle><circle r="16.5" class="node" id="1_0" cx="1006" cy="425" style="fill: rgb(45, 69, 236); stroke: rgb(51, 51, 51);"></circle><circle r="16.5" class="node" id="1_1" cx="1006" cy="479" style="fill: rgb(45, 69, 236); stroke: rgb(51, 51, 51);"></circle><circle r="16.5" class="node" id="1_2" cx="1006" cy="533" style="fill: rgb(45, 69, 236); stroke: rgb(51, 51, 51);"></circle><circle r="16.5" class="node" id="1_3" cx="1006" cy="587" style="fill: rgb(45, 69, 236); stroke: rgb(51, 51, 51);"></circle><circle r="16.5" class="node" id="1_4" cx="1006" cy="641" style="fill: rgb(45, 69, 236); stroke: rgb(51, 51, 51);"></circle><circle r="16.5" class="node" id="2_0" cx="1101" cy="450.5" style="fill: rgb(45, 69, 236); stroke: rgb(51, 51, 51);"></circle><text class="text" dy=".35em" x="876" y="744" style="font-size: 12px;"></text><text class="text" dy=".35em" x="971" y="744" style="font-size: 12px;"></text><text class="text" dy=".35em" x="1066" y="744" style="font-size: 12px;"></text><circle r="16.5" class="node" id="2_1" cx="1101" cy="505.5" style="fill: rgb(45, 69, 236); stroke: rgb(51, 51, 51);"></circle><circle r="16.5" class="node" id="2_2" cx="1101" cy="560.5" style="fill: rgb(45, 69, 236); stroke: rgb(51, 51, 51);"></circle><circle r="16.5" class="node" id="2_3" cx="1101" cy="615.5" style="fill: rgb(45, 69, 236); stroke: rgb(51, 51, 51);"></circle><circle r="16.5" class="node" id="3_0" cx="1196" cy="533" style="fill: rgb(45, 69, 236); stroke: rgb(51, 51, 51);"></circle><text class="text" dy=".35em" x="1161" y="744" style="font-size: 12px;"></text></g><defs><marker id="arrow" viewBox="0 -5 10 10" markerWidth="7" markerHeight="7" orient="auto" refX="58.199999999999996"><path d="M0,-5L10,0L0,5" style="stroke: rgb(80, 80, 80); fill: rgb(80, 80, 80);"></path></marker></defs></svg>